<?xml version="1.0" encoding="UTF-8" standalone="no"?>
<svg version="1.1" xmlns="http://www.w3.org/2000/svg" xmlns:xlink="http://www.w3.org/1999/xlink" x="0px" y="0px"
    viewBox="0 0 307 307" style="enable-background:new 0 0 307 307;" xml:space="preserve">

    <rect fill="#000000" width="307" height="307" />

    <!-- Shield duotone solid -->
    <path fill="#888b8c" d="m 153.32791,43.493673 0.30115,-0.129063 4.9905,1.935979 89.2699,34.632413 8.26015,3.183606 0.51627,8.819428 c 1.24763,21.467804 -2.10806,54.336334 -16.04707,86.430464 -14.06807,32.3953 -39.14969,64.53246 -81.48298,82.85968 l -5.46374,2.40921 c -0.0861,-0.043 -0.21512,-0.0861 -0.30116,0 0,-73.48095 0,-146.78983 0,-220.141717 z" />
    <path fill="#595a61" d="m 153.32791,43.364611 -4.94749,1.935979 -89.269889,34.632412 -8.260155,3.226622 -0.516259,8.819436 c -1.247628,21.46779 2.10806,54.33632 16.04707,86.43047 14.068079,32.39529 39.149693,64.53245 81.482973,82.85967 l 5.46375,2.36619 v 0 z" />

    <!-- Gear complex solid -->
    <path fill="#ffffff" d="m 164.84333,96.56825 c -0.29375,-2.350013 -2.05626,-4.248101 -4.40627,-4.519255 -2.21444,-0.24856 -4.47406,-0.384137 -6.75628,-0.384137 -2.50819,0 -4.99378,0.158174 -7.41158,0.474522 -2.32742,0.293751 -4.06734,2.191839 -4.36109,4.51925 l -0.65528,5.21974 c -0.18077,1.44616 -1.2202,2.62116 -2.59859,3.09569 -2.16923,0.72308 -4.29328,1.62693 -6.30435,2.64376 -1.31058,0.67789 -2.89232,0.56492 -4.06732,-0.33894 l -4.06734,-3.16348 c -1.85289,-1.44616 -4.45147,-1.53654 -6.30436,-0.0904 -3.75098,2.93752 -7.11782,6.32695 -10.03274,10.10053 -1.42357,1.85289 -1.33319,4.42887 0.11297,6.28175 l 3.20867,4.13513 c 0.90386,1.15241 0.99425,2.71156 0.33895,4.02214 -0.99423,1.98847 -1.8529,4.04474 -2.55338,6.19138 -0.45192,1.40097 -1.64952,2.44039 -3.09569,2.62117 l -5.15195,0.65528 c -2.327412,0.29376 -4.225499,2.05627 -4.51925,4.38368 -0.293753,2.32741 -0.42933,4.72262 -0.42933,7.11783 0,2.3952 0.135577,4.76781 0.42933,7.09523 0.293751,2.32741 2.191838,4.08992 4.51925,4.38368 l 5.15195,0.65529 c 1.44617,0.18078 2.64377,1.22019 3.09569,2.62117 0.70048,2.14664 1.55915,4.2255 2.55338,6.21397 0.6553,1.31058 0.54231,2.86973 -0.33895,4.02213 l -3.16347,4.06734 c -1.44616,1.85289 -1.53655,4.42887 -0.11298,6.28177 2.91492,3.77356 6.28177,7.16301 10.03275,10.10053 1.85289,1.44616 4.45146,1.35577 6.30436,-0.0904 l 4.06733,-3.16348 c 1.15241,-0.90385 2.75674,-0.99424 4.06732,-0.33894 2.03367,1.03943 4.13513,1.92068 6.30436,2.64377 1.37838,0.47451 2.41781,1.64952 2.59858,3.09568 l 0.65529,5.21974 c 0.29375,2.32742 2.03366,4.2255 4.36108,4.51926 2.41779,0.31634 4.90339,0.47451 7.41158,0.47451 2.28222,0 4.54185,-0.13557 6.75629,-0.38413 2.35001,-0.27115 4.11251,-2.19184 4.40627,-4.51925 l 0.63269,-5.08417 c 0.18077,-1.46876 1.2428,-2.66637 2.64377,-3.11829 2.25963,-0.72308 4.45146,-1.62692 6.55291,-2.66636 1.31059,-0.65528 2.86973,-0.54231 4.02215,0.33895 l 4.08993,3.20867 c 1.85288,1.44617 4.42887,1.53655 6.28175,0.11298 0.63271,-0.49712 1.2428,-0.99424 1.8529,-1.51394 l 6.93706,-6.93706 c 0.40673,-0.49713 0.81346,-0.99424 1.2202,-1.49136 1.46876,-1.85289 1.35577,-4.45146 -0.0904,-6.30436 l -3.16348,-4.04473 c -0.90386,-1.15241 -0.99424,-2.75675 -0.33894,-4.06734 1.08461,-2.12405 2.03365,-4.36107 2.77933,-6.66589 0.45193,-1.40097 1.64954,-2.4404 3.0957,-2.62118 l 5.15195,-0.63268 c 2.32741,-0.29376 4.24811,-2.05627 4.51925,-4.38368 0.0451,-0.38413 0.0904,-0.79087 0.13558,-1.17502 v -11.72746 c -0.0451,-0.38413 -0.0904,-0.79086 -0.13558,-1.175 -0.29374,-2.32742 -2.19184,-4.08992 -4.51925,-4.38368 l -5.15195,-0.63269 c -1.44616,-0.18078 -2.64377,-1.22019 -3.0957,-2.62117 -0.76828,-2.30482 -1.69472,-4.54185 -2.77933,-6.6659 -0.6779,-1.31059 -0.56492,-2.89232 0.33894,-4.06733 l 3.16348,-4.04474 c 1.44616,-1.85289 1.53655,-4.45146 0.0904,-6.30435 -0.40674,-0.49712 -0.81347,-0.99425 -1.2202,-1.49136 l -6.93706,-7.00484 c -0.6101,-0.51971 -1.22019,-1.01683 -1.8529,-1.51395 -1.85288,-1.44616 -4.42887,-1.33318 -6.28175,0.11298 l -4.13513,3.20867 c -1.15241,0.90385 -2.73415,0.99424 -4.02214,0.33895 -2.10145,-1.03944 -4.29329,-1.94328 -6.55292,-2.66636 -1.40096,-0.45193 -2.46299,-1.64953 -2.64376,-3.0957 z m -11.16255,34.84345 c 9.98755,0 18.07701,8.08946 18.07701,18.07702 0,9.98756 -8.08946,18.07702 -18.07701,18.07702 -9.98755,0 -18.07702,-8.08946 -18.07702,-18.07702 0,-9.98756 8.08947,-18.07702 18.07702,-18.07702 z" />
</svg>
