<?xml version="1.0" encoding="utf-8"?>
<!-- Generator: Adobe Illustrator 22.1.0, SVG Export Plug-In . SVG Version: 6.00 Build 0)  -->
<svg version="1.1" xmlns="http://www.w3.org/2000/svg" xmlns:xlink="http://www.w3.org/1999/xlink" x="0px" y="0px"
	 viewBox="0 0 307 307" style="enable-background:new 0 0 307 307;" xml:space="preserve">

	<rect fill="#000000" width="307" height="307"/>
	<g fill="#000001">
		<path class="st4" d="M265.2,214.6c-3-7.1-10.9-10.4-18-7.4l-7.6,3.1l-13.4-35.1c16.5-12,22.2-34.7,11.8-52.7l-29.9-51.9
			c-2.8-4.8-8.6-6.8-13.8-4.6l-39.5,16.3l-39.5-16.3c-5.1-2.2-11-0.2-13.8,4.6l-29.9,51.9c-10.4,18.2-4.6,40.6,11.8,52.7l-13.3,35.1
			l-7.6-3.1c-7.1-3-15.1,0.5-18,7.4c-0.6,1.5,0,3,1.5,3.6l55.9,23.3c1.5,0.6,3,0,3.6-1.5c3-7.1-0.5-15.2-7.4-18l-7.6-3.1l13.5-35.8
			c1.5,0.2,3,0.5,4.5,0.5c17.9,0,34.3-11.4,39-29.4l7-26.1l7,26.1c4.8,18,21.3,29.4,39,29.4c1.5,0,3-0.3,4.5-0.5l13.5,35.8l-7.6,3.1
			c-7.1,3-10.4,11-7.4,18c0.6,1.5,2.2,2.2,3.6,1.5l55.9-23.3C265,217.6,265.6,216.1,265.2,214.6L265.2,214.6z M139.8,120.9l-38.6-16
			L113.7,83l32.7,13.5L139.8,120.9z M170.1,120.9l-6.6-24.4L196.2,83l12.6,21.9L170.1,120.9z"/>
	</g>
</svg>
