<?xml version="1.0" encoding="utf-8"?>
<!-- Generator: Adobe Illustrator 22.1.0, SVG Export Plug-In . SVG Version: 6.00 Build 0)  -->
<svg version="1.1" id="Ebene_1" xmlns="http://www.w3.org/2000/svg" xmlns:xlink="http://www.w3.org/1999/xlink" x="0px" y="0px"
	 viewBox="0 0 614 307" style="enable-background:new 0 0 614 307;" xml:space="preserve">
<rect fill="#ffffff" y="0" width="307" height="307"/>
<path fill="#000001" d="M307,307H0V0h307V307z M97,230.6h76.4c15,0,26.4-3,35.1-9.1c10.3-7.3,16.6-19.1,16.6-34.7
	c0-16.5-9.1-29.8-24.9-34.9v-0.6c12.1-5.3,18-14,18-27.8c0-12-5.1-21.9-13.8-28.6c-7.7-5.9-18.2-9.3-32.4-9.3H97V230.6z
	 M164.9,141.8h-26.4v-23.5h26.2c8.1,0,13.8,4.5,13.8,12c0,7.7-5.5,11.6-13.6,11.6V141.8z M168.7,197.2h-30.2V169h30
	c8.7,0,15.6,4.7,15.6,14C184.1,191.7,177.8,197.2,168.7,197.2L168.7,197.2z"/>
<rect fill="#000000" x="307" y="0" width="307" height="307"/>
<path fill="#000001" d="M457.1,153.5c-1.7-5.3-1.6-15.7-0.7-15.7C459.3,137.9,459,150.2,457.1,153.5z M456.6,169.3c-2.6,6.7-5.8,14.5-9.5,20.9
	c6.1-2.3,13-5.7,21-7.3C463.8,179.7,459.8,175.1,456.6,169.3L456.6,169.3z M425.1,211c0,0.3,4.4-1.8,11.7-13.4
	C434.6,199.7,427.1,205.7,425.1,211z M479.2,121.4h45.4V231c0,4.4-3.6,8-8,8H404.4c-4.4,0-8-3.6-8-8V76c0-4.4,3.6-8,8-8h66.8v45.4
	C471.2,117.8,474.8,121.4,479.2,121.4z M476.5,178.8c-6.7-4.1-11.1-9.7-14.3-18c1.5-6.2,3.9-15.6,2.1-21.4c-1.6-9.8-14.2-8.9-16-2.3
	c-1.7,6.1-0.1,14.7,2.7,25.7c-3.9,9.2-9.6,21.6-13.6,28.7c0,0,0,0-0.1,0c-9,4.6-24.6,14.9-18.2,22.7c1.9,2.3,5.3,3.3,7.2,3.3
	c6,0,11.9-6,20.4-20.6c8.6-2.8,18.1-6.4,26.4-7.7c7.2,3.9,15.7,6.5,21.4,6.5c9.7,0,10.4-10.7,6.6-14.5
	C496.5,176.7,483,178,476.5,178.8z M522.3,103.1l-32.7-32.7c-1.5-1.5-3.5-2.3-5.7-2.3h-2v42.7h42.7v-2
	C524.6,106.6,523.8,104.6,522.3,103.1z M497.5,188.3c1.4-0.9-0.8-4-14.3-3C495.6,190.6,497.5,188.3,497.5,188.3z"/>
</svg>
