<?xml version="1.0" encoding="utf-8"?>
<!-- Generator: Adobe Illustrator 22.1.0, SVG Export Plug-In . SVG Version: 6.00 Build 0)  -->
<svg version="1.1" id="Ebene_1" xmlns="http://www.w3.org/2000/svg" xmlns:xlink="http://www.w3.org/1999/xlink" x="0px" y="0px"
	 viewBox="0 0 614 307" style="enable-background:new 0 0 614 307;" xml:space="preserve">
<rect fill="#ffffff" y="0" width="307" height="307"/>
<path fill="#000001" d="M307,307H0V0h307V307z M97,230.6h76.4c15,0,26.4-3,35.1-9.1c10.3-7.3,16.6-19.1,16.6-34.7
	c0-16.5-9.1-29.8-24.9-34.9v-0.6c12.1-5.3,18-14,18-27.8c0-12-5.1-21.9-13.8-28.6c-7.7-5.9-18.2-9.3-32.4-9.3H97V230.6z
	 M164.9,141.8h-26.4v-23.5h26.2c8.1,0,13.8,4.5,13.8,12c0,7.7-5.5,11.6-13.6,11.6V141.8z M168.7,197.2h-30.2V169h30
	c8.7,0,15.6,4.7,15.6,14C184.1,191.7,177.8,197.2,168.7,197.2L168.7,197.2z"/>
<rect fill="#000000" x="307" y="0" width="307" height="307"/>
<path fill="#000001" d="M542.5,98.8l-78.3-30.1c-2.4-0.9-5.1-0.9-7.5,0l-78.3,30.1c-2.1,0.8-3.5,2.8-3.5,5v12.3c0,3,2.4,5.3,5.3,5.3h160.3
	c3,0,5.3-2.4,5.3-5.3v-12.3C546,101.5,544.6,99.5,542.5,98.8z M396.4,132.1v53.4H391c-3,0-5.3,2.4-5.3,5.3v16h149.7v-16
	c0-3-2.4-5.3-5.3-5.3h-5.3v-53.4h-21.4v53.4h-32.1v-53.4h-21.4v53.4h-32.1v-53.4H396.4z M540.7,217.6H380.3c-3,0-5.3,2.4-5.3,5.3
	v10.7c0,3,2.4,5.3,5.3,5.3h160.3c3,0,5.3-2.4,5.3-5.3V223C546,220,543.6,217.6,540.7,217.6z"/>
</svg>
