<?xml version="1.0" encoding="utf-8"?>
<!-- Generator: Adobe Illustrator 22.1.0, SVG Export Plug-In . SVG Version: 6.00 Build 0)  -->
<svg version="1.1" id="Ebene_1" xmlns="http://www.w3.org/2000/svg" xmlns:xlink="http://www.w3.org/1999/xlink" x="0px" y="0px"
	 viewBox="0 0 614 307" style="enable-background:new 0 0 614 307;" xml:space="preserve">
<rect fill="#ffffff" y="0" width="307" height="307"/>
<path fill="#000001" d="M307,307H0V0h307V307z M97,230.6h76.4c15,0,26.4-3,35.1-9.1c10.3-7.3,16.6-19.1,16.6-34.7
	c0-16.5-9.1-29.8-24.9-34.9v-0.6c12.1-5.3,18-14,18-27.8c0-12-5.1-21.9-13.8-28.6c-7.7-5.9-18.2-9.3-32.4-9.3H97V230.6z
	 M164.9,141.8h-26.4v-23.5h26.2c8.1,0,13.8,4.5,13.8,12c0,7.7-5.5,11.6-13.6,11.6V141.8z M168.7,197.2h-30.2V169h30
	c8.7,0,15.6,4.7,15.6,14C184.1,191.7,177.8,197.2,168.7,197.2L168.7,197.2z"/>
<rect fill="#000000" x="307" y="0" width="307" height="307"/>
<path fill="#000001" d="M555.8,114.4c-0.1,29.4-8.6,58.2-24.5,82.9c-16.9,26.2-40.4,47.6-68.2,61.9l-0.5,0.2c-1.2,0.6-2.9,0.6-4.1,0
	l-0.5-0.2c-27.7-14.2-51.2-35.6-68.2-61.9c-15.9-24.7-24.4-53.5-24.5-82.9V91.2c0-1.9,1.1-3.5,2.9-4.1c17.9-6.9,32.4-20.2,40.7-37.5
	c0.7-1.5,2.4-2.5,4-2.4h95.5c1.6,0,3.2,0.9,4,2.4c8.2,17.2,22.9,30.6,40.7,37.5c1.8,0.6,2.9,2.4,2.9,4.1L555.8,114.4L555.8,114.4z"
	/>
</svg>
