<?xml version="1.0" encoding="utf-8"?>
<!-- Generator: Adobe Illustrator 22.1.0, SVG Export Plug-In . SVG Version: 6.00 Build 0)  -->
<svg version="1.1" xmlns="http://www.w3.org/2000/svg" xmlns:xlink="http://www.w3.org/1999/xlink" x="0px" y="0px"
	 viewBox="0 0 307 307" style="enable-background:new 0 0 307 307;" xml:space="preserve">

	<rect fill="#000000" width="307" height="307"/>
	<g fill="#000001">
		<path d="M240.2,117.5c0,25.5-15.4,50.1-37.4,59.1c-6.3,2.9-13.2,4-20.1,3.1c-3.1-0.5-4.1,0.8-5,3.5c-7.1,23.7-14.3,47.5-21.5,71.2
			c-0.7,2.5-1.2,4.7-4.8,4.6c-2.7,0.4-5.2-1.4-5.6-4.1c-6.9-23.4-14.2-46.7-21.1-70.1c-1.1-3.8-2.4-5.3-6.9-5
			c-12.2,0.6-24.2-3.7-33.2-12c-23.4-19.5-30-57.1-14.3-82.2c8.2-14.8,24.9-22.9,41.7-20.1c1.9,0.3,3.8-0.4,5-1.9
			c19.8-21,47.5-21.1,67.7-0.3c1.2,1.6,3.2,2.5,5.2,2.3c18.7-2.4,32.6,5.2,42.2,21C237.6,95.9,240.5,106.7,240.2,117.5z
			 M110.6,109.8c0.7,18,6.5,33.8,22.1,44.4c9.3,6.8,21.6,7.8,31.9,2.6c11.1-5.4,19.5-15.3,23-27.1c6.7-18,4.3-38.1-6.4-54
			c-13.6-20.7-38.6-23-55.8-5.5C114.7,81.1,110.9,94.7,110.6,109.8z M154.8,229.3h0.7c5.1-16.6,10.1-33.2,15-49.9
			c0.3-1.2,0.7-2.3-0.8-2.9c-3.5-1.7-6.9-3.7-10.1-6.1c-2.6-1.7-4.9-0.4-4.9,2.5C154.8,191.7,154.8,210.5,154.8,229.3z M146.6,229.5
			c0-1.2,0.3-1.5,0.3-1.8c0-18.1,0-36.3,0-54.5c0-3.4-2-4.4-4.9-2.6s-5.4,3.8-8.4,5.1c-3,1.3-2.6,2.5-1.9,4.8
			c3.1,9.9,6,19.9,9.1,29.9C142.6,216.5,144.5,222.6,146.6,229.5z"/>
		<path d="M146,70.9c0,1.6-0.9,3-2.2,3.8c-5.8,4-10.5,9.3-13.7,15.6c-1.3,2.5-3.2,4.3-6.1,2.6c-2.9-1.6-2.4-3.8-1.1-6.3
			c3.8-7.5,9.5-13.9,16.5-18.7c1.3-1,3.2-1.2,4.7-0.5C145.2,68.2,146,69.5,146,70.9z"/>
	</g>
</svg>
