<?xml version="1.0" encoding="utf-8"?>
<!-- Generator: Adobe Illustrator 22.1.0, SVG Export Plug-In . SVG Version: 6.00 Build 0)  -->
<svg version="1.1" id="Ebene_1" xmlns="http://www.w3.org/2000/svg" xmlns:xlink="http://www.w3.org/1999/xlink" x="0px" y="0px"
	 viewBox="0 0 614 307" style="enable-background:new 0 0 614 307;" xml:space="preserve">
<rect fill="#ffffff" y="0" width="307" height="307"/>
<path fill="#000001" d="M307,307H0V0h307V307z M97,230.6h76.4c15,0,26.4-3,35.1-9.1c10.3-7.3,16.6-19.1,16.6-34.7
	c0-16.5-9.1-29.8-24.9-34.9v-0.6c12.1-5.3,18-14,18-27.8c0-12-5.1-21.9-13.8-28.6c-7.7-5.9-18.2-9.3-32.4-9.3H97V230.6z
	 M164.9,141.8h-26.4v-23.5h26.2c8.1,0,13.8,4.5,13.8,12c0,7.7-5.5,11.6-13.6,11.6V141.8z M168.7,197.2h-30.2V169h30
	c8.7,0,15.6,4.7,15.6,14C184.1,191.7,177.8,197.2,168.7,197.2L168.7,197.2z"/>
<rect fill="#000000" x="307" y="0" width="307" height="307"/>
<path fill="#000001" d="M536.8,122.2c-0.1,23.5-6.9,46.6-19.6,66.3c-13.5,21-32.3,38.1-54.6,49.5l-0.4,0.2c-1,0.5-2.3,0.5-3.3,0l-0.4-0.2
	c-22.2-11.4-41-28.5-54.6-49.5c-12.7-19.8-19.5-42.8-19.6-66.3v-18.5c0-1.5,0.9-2.8,2.3-3.3c14.3-5.5,25.9-16.2,32.6-30
	c0.6-1.2,1.9-2,3.2-1.9h76.4c1.3,0,2.6,0.7,3.2,1.9c6.6,13.8,18.3,24.5,32.6,30c1.4,0.5,2.3,1.9,2.3,3.3L536.8,122.2L536.8,122.2z"
	/>
</svg>
