<?xml version="1.0" encoding="utf-8"?>
<!-- Generator: Adobe Illustrator 22.1.0, SVG Export Plug-In . SVG Version: 6.00 Build 0)  -->
<svg version="1.1" id="Ebene_1" xmlns="http://www.w3.org/2000/svg" xmlns:xlink="http://www.w3.org/1999/xlink" x="0px" y="0px"
	 viewBox="0 0 614 307" style="enable-background:new 0 0 614 307;" xml:space="preserve">
<rect fill="#ffffff" y="0" width="307" height="307"/>
<path fill="#000001" d="M307,307H0V0h307V307z M97,230.6h76.4c15,0,26.4-3,35.1-9.1c10.3-7.3,16.6-19.1,16.6-34.7
	c0-16.5-9.1-29.8-24.9-34.9v-0.6c12.1-5.3,18-14,18-27.8c0-12-5.1-21.9-13.8-28.6c-7.7-5.9-18.2-9.3-32.4-9.3H97V230.6z
	 M164.9,141.8h-26.4v-23.5h26.2c8.1,0,13.8,4.5,13.8,12c0,7.7-5.5,11.6-13.6,11.6V141.8z M168.7,197.2h-30.2V169h30
	c8.7,0,15.6,4.7,15.6,14C184.1,191.7,177.8,197.2,168.7,197.2L168.7,197.2z"/>
<rect fill="#000000" x="307" y="0" width="307" height="307"/>
<path fill="#000001" d="M456.3,153.5c-2.1-6.6-2-19.5-0.9-19.5C459,134.1,458.6,149.4,456.3,153.5z M455.7,173.1
	c-3.2,8.3-7.2,18-11.8,26c7.6-2.9,16.2-7.1,26.1-9.1C464.6,186.1,459.6,180.4,455.7,173.1L455.7,173.1z M416.5,225
	c0,0.4,5.5-2.2,14.5-16.7C428.3,210.9,419,218.4,416.5,225z M483.7,113.6h56.4v136.3c0,5.5-4.5,9.9-9.9,9.9H390.8
	c-5.5,0-9.9-4.5-9.9-9.9V57.1c0-5.5,4.5-9.9,9.9-9.9h83.1v56.4C473.8,109.1,478.3,113.6,483.7,113.6z M480.4,185
	c-8.3-5.1-13.8-12.1-17.8-22.4c1.9-7.7,4.8-19.4,2.6-26.6c-2-12.2-17.7-11.1-19.9-2.9c-2.1,7.6-0.1,18.3,3.4,32
	c-4.8,11.4-11.9,26.9-16.9,35.7c0,0,0,0-0.1,0c-11.2,5.7-30.6,18.5-22.6,28.2c2.4,2.9,6.6,4.1,9,4.1c7.5,0,14.8-7.5,25.4-25.6
	c10.7-3.5,22.5-8,32.8-9.6c9,4.8,19.5,8.1,26.6,8.1c12.1,0,12.9-13.3,8.2-18C505.3,182.3,488.5,184,480.4,185z M537.3,90.8
	l-40.7-40.7c-1.9-1.9-4.4-2.9-7.1-2.9h-2.5v53.1h53.1v-2.5C540.2,95.2,539.2,92.7,537.3,90.8z M506.5,196.8c1.7-1.1-1-5-17.8-3.7
	C504.1,199.6,506.5,196.8,506.5,196.8z"/>
</svg>
