<?xml version="1.0" encoding="utf-8"?>

<svg version="1.1" xmlns="http://www.w3.org/2000/svg" xmlns:xlink="http://www.w3.org/1999/xlink" x="0px" y="0px"
    viewBox="0 0 307 307" style="enable-background:new 0 0 307 307;" xml:space="preserve">

   <g>
   	<rect fill="#000001" width="307" height="307"/>
      <path fill="#ffffff" d="m 91.893962,97.732527 h 73.505488 c 9.94132,0 18.22575,0.9457 24.85329,2.848623 6.62755,1.90294 11.57504,4.82076 14.83087,8.77656 3.26744,3.94426 4.90114,9.16868 4.90114,15.66172 v 0.14992 c 0,6.29699 -1.85385,11.49834 -5.57315,15.59253 -3.71931,4.09418 -9.29247,7.00049 -16.71949,8.69582 v 0.29986 c 8.829,1.60307 15.61875,4.64777 20.33451,9.14561 4.71575,4.49784 7.07942,10.49496 7.07942,17.99136 v 0.29986 c 0,7.10429 -1.91179,13.04374 -5.72379,17.84144 -3.81199,4.79771 -9.38516,8.37291 -16.71949,10.7141 -7.33433,2.35272 -16.46457,3.51754 -27.41393,3.51754 H 91.893962 Z m 71.848598,42.498843 c 1.70324,-1.24557 2.56065,-3.32149 2.56065,-6.21626 v -0.14993 c 0,-2.5949 -0.79948,-4.54396 -2.41001,-5.84719 -1.61054,-1.29169 -4.11326,-1.94907 -7.53131,-1.94907 h -17.47262 v 16.04231 h 16.87011 c 3.61504,0 6.27995,-0.62278 7.98318,-1.86833 z m 1.12392,38.61224 c 1.85385,-1.39549 2.79236,-3.70207 2.79236,-6.8967 0,-2.99855 -0.9501,-5.18981 -2.86189,-6.59684 -1.91179,-1.39548 -4.97066,-2.09898 -9.18819,-2.09898 h -16.71949 v 17.69151 h 17.17137 c 4.00897,0 6.95197,-0.70351 8.80584,-2.09899 z" />
   </g>
</svg>
