<?xml version="1.0" encoding="utf-8"?>
<!-- Generator: Adobe Illustrator 22.1.0, SVG Export Plug-In . SVG Version: 6.00 Build 0)  -->
<svg version="1.1" xmlns="http://www.w3.org/2000/svg" xmlns:xlink="http://www.w3.org/1999/xlink" x="0px" y="0px"
	 viewBox="0 0 307 307" style="enable-background:new 0 0 307 307;" xml:space="preserve">

	<rect fill="#000000" width="307" height="307"/>
	<g fill="#000001">
		<path d="M258.8,105.3c0-22.1-17.9-40-40-40c-10.5,0-20.5,4.1-28,11.4l0,0l-88,88c-0.3,0.3-0.5,0.6-0.7,0.9
		c-0.3,0.3-0.6,0.5-0.9,0.8c-9.8,11.4-8.6,28.6,2.8,38.4c10.2,8.8,25.4,8.8,35.6,0c0.2-0.2,0.4-0.5,0.6-0.8l0.8-0.7l75.2-75
		c3.5-3.5,3.5-9.2,0-12.7c-3.5-3.5-9.2-3.5-12.7,0l0,0l-75.1,75.1l-0.6,0.8c-0.3,0.2-0.6,0.4-0.8,0.7c-3.6,3.6-9.5,3.6-13.2,0
		c-3.6-3.7-3.6-9.5,0-13.2c0.3-0.3,0.5-0.6,0.7-0.9c0.3-0.2,0.6-0.5,0.9-0.8l87.7-87.6c8.7-8.6,22.7-8.6,31.3,0s8.6,22.7,0,31.3l0,0
		L132.8,222.6c-0.4,0.4-0.8,0.9-1.2,1.5l0,0c-12.7,12.7-34.2,12-47.8-1.7s-14.7-35.2-1.8-47.9l90.4-90.4c3.7-3.3,4-8.9,0.7-12.6
		c-3.3-3.7-8.9-4-12.6-0.7c-0.2,0.2-0.5,0.5-0.7,0.7l-90.4,90.4c-19.7,19.7-18.9,52.5,1.7,72.9c10.1,10.2,23.8,15.9,38.1,16
		c13.1,0.1,25.7-5,35-14.3l0,0c0.5-0.4,1-0.7,1.5-1.2l103-103.1c0.4-0.4,0.8-0.9,1.2-1.4C255.6,123.6,258.8,114.6,258.8,105.3z"/>
	</g>
</svg>
