<?xml version="1.0" encoding="utf-8"?>
<!-- Generator: Adobe Illustrator 22.1.0, SVG Export Plug-In . SVG Version: 6.00 Build 0)  -->
<svg version="1.1" xmlns="http://www.w3.org/2000/svg" xmlns:xlink="http://www.w3.org/1999/xlink" x="0px" y="0px"
	 viewBox="0 0 307 307" style="enable-background:new 0 0 307 307;" xml:space="preserve">

	<rect fill="#000000" width="307" height="307"/>
	<g fill="#000001">
		<path d="M55.9,216.5c-1.1,1.7-2.1,3.3-3.3,4.8c-3.6,4.7-8,8.1-13.9,9.3c-1.1,0.2-2.2,0.4-3.3,0.4
			c-1,0-1.5-0.5-1.5-1.4c0-1.1,0-2.3,0-3.4c0-0.8,0.4-1.4,1.3-1.4c5.6-0.4,9.7-3.4,12.9-7.8c1.3-1.8,2.4-3.7,3.5-5.6
			c0.5-0.8,1-1.5,1.7-2.2c1.5-1.8,3.4-2.3,5.7-1.6c2.2,0.7,3.3,2.4,3.7,4.6c0.2,1.3-0.1,2.5-0.1,3.8c-0.1,2.1-0.9,4.2-0.8,6.4
			c0,0.2,0,0.4,0,0.6c-0.1,1.8,0.4,2.2,2.1,1.6c1.6-0.6,3-1.7,4.1-3c0.8-1,1.7-1.8,2.5-2.8c1-1.3,2.2-2.2,3.5-2.9
			c1.5-0.8,2.9-0.7,4.3,0.2c1.1,0.7,1.8,1.8,2.2,3.1c0.6,1.7,1.4,3.2,2.1,4.8c0.3,0.7,0.6,0.6,1.1,0.1c1.6-1.6,3.1-3.3,4.5-5.1
			c0.7-0.9,1.6-1.8,2.5-2.5c2.9-2.3,6.4-0.8,7.1,2.8c0.5,2.8,2,4.9,4.8,5.4c0.7,0.1,1.5,0.2,2.2,0.4c4.2,0.3,4.4,6.4-0.2,6.2
			c-2.9-0.1-5.6-0.7-7.9-2.5c-1.5-1.1-2.8-2.5-3.6-4.3c-0.4-0.8-0.5-0.8-1.1-0.1c-0.8,1-1.6,2-2.5,3c-1.1,1.2-2.3,2.3-3.7,3.1
			c-2.5,1.3-4.9,0.9-6.9-1.1c-1-1.1-1.6-2.4-2.3-3.7c-0.3-0.6-0.5-1.2-0.8-1.8c-0.4-0.9-0.3-0.8-1-0.2c-1.7,1.6-3,3.6-5,5
			c-2.1,1.6-4.4,2.7-7.1,2.6c-4.1-0.1-6.3-2.5-6.8-6.4c-0.2-1.5-0.1-3.1,0.1-4.6C55.7,218.9,55.7,217.7,55.9,216.5"/>
		<path d="M244.8,75.8c16,0,25.3,14.1,19.8,26.8c-0.5,1.2-0.4,1.8,0.5,2.6c2.2,2,4.3,4.2,5.5,7c2.4,5.9,1.2,12.5-3.4,17
			c-12.1,12.1-24.2,24.1-36.2,36.2c-1.6,1.6-3.4,2.2-5.6,1.5c-2-0.6-3.2-2.1-3.5-4.2c-0.3-1.8,0.4-3.3,1.7-4.6
			c6.3-6.2,12.5-12.5,18.7-18.7c5.7-5.7,11.5-11.5,17.2-17.3c2.4-2.4,2.4-5.3,0.1-7.8c-0.5-0.5-1.1-1-1.6-1.6c-0.6-0.7-1-0.8-1.7,0
			c-3.6,3.7-7.4,7.4-11,11.1c-13.4,13.4-26.8,26.8-40.1,40.2c-0.6,0.6-1,0.6-1.6,0c-8.3-8.3-16.6-16.6-24.9-24.9
			c-0.3-0.3-0.4-0.7-0.7-0.8c-1.1-0.7-0.4-1.2,0.1-1.7c2.4-2.4,4.9-4.8,7.3-7.2c15.9-15.9,31.9-31.9,47.8-47.8
			C237.1,77.7,241.7,75.9,244.8,75.8"/>
		<path d="M165.7,195.8c-0.4-0.1-0.6-0.3-0.8-0.5c-6-6-12-12-18-17.9c-0.6-0.6-0.7-1-0.2-1.7
			c8.4-10.8,16.7-21.6,25.1-32.4c0.6-0.7,0.9-0.8,1.6-0.1c8.5,8.5,17,17,25.5,25.5c0.8,0.7,0.8,1.1-0.1,1.8
			c-10.8,8.3-21.6,16.7-32.4,25C166.2,195.5,165.9,195.6,165.7,195.8"/>
		<path d="M116.6,231c-2.7,0-4.9-1.8-5.4-4.5c-0.5-2.6,0.8-5.1,3.3-6c0.7-0.3,1-0.7,1.2-1.4c2.3-8.5,4.6-16.9,6.9-25.3
			c0.6-2.1,1.7-3.5,3.6-4.5c4.8-2.5,9.5-5,14.3-7.6c0.7-0.4,1.1-0.4,1.7,0.2c6,6.1,12.1,12.1,18.2,18.2c0.4,0.4,0.5,0.8,0.2,1.3
			c-2.7,5-5.3,10-8,15c-0.8,1.5-2.1,2.5-3.8,3c-8.6,2.3-17.2,4.7-25.8,7c-0.7,0.2-1.2,0.5-1.4,1.3C120.9,229.7,118.8,231,116.6,231
			 M139.2,197.8c-3.9,0-6.6,3.2-5.9,6.6c0.2,0.8,0.1,1.3-0.5,1.8c-0.9,0.8-1.8,1.8-2.7,2.6c-3.6,3.6-7.1,7.1-10.7,10.7
			c-0.5,0.5-0.9,0.8,0,1.3c0.7,0.4,1.3,0.9,1.6,1.6c0.4,0.8,0.7,0.8,1.3,0.2c4.4-4.4,8.8-8.8,13.2-13.3c0.6-0.6,1.1-0.8,1.9-0.6
			c2.2,0.5,4.1-0.3,5.5-2.1c1.4-1.8,1.6-3.7,0.6-5.7C142.7,198.9,141,197.9,139.2,197.8"/>
	</g>
</svg>
