<?xml version="1.0" encoding="utf-8"?>
<!-- Generator: Adobe Illustrator 22.1.0, SVG Export Plug-In . SVG Version: 6.00 Build 0)  -->
<svg version="1.1" id="Ebene_1" xmlns="http://www.w3.org/2000/svg" xmlns:xlink="http://www.w3.org/1999/xlink" x="0px" y="0px"
	 viewBox="0 0 614 307" style="enable-background:new 0 0 614 307;" xml:space="preserve">
<rect fill="#ffffff" y="0" width="307" height="307"/>
<path fill="#000001" d="M307,307H0V0h307V307z M97,230.6h76.4c15,0,26.4-3,35.1-9.1c10.3-7.3,16.6-19.1,16.6-34.7
	c0-16.5-9.1-29.8-24.9-34.9v-0.6c12.1-5.3,18-14,18-27.8c0-12-5.1-21.9-13.8-28.6c-7.7-5.9-18.2-9.3-32.4-9.3H97V230.6z
	 M164.9,141.8h-26.4v-23.5h26.2c8.1,0,13.8,4.5,13.8,12c0,7.7-5.5,11.6-13.6,11.6V141.8z M168.7,197.2h-30.2V169h30
	c8.7,0,15.6,4.7,15.6,14C184.1,191.7,177.8,197.2,168.7,197.2L168.7,197.2z"/>
<rect fill="#000000" x="307" y="0" width="307" height="307"/>
<path fill="#000001" d="M566.6,212.4c-2.9-6.8-10.5-10-17.3-7.1l-7.3,3l-12.9-33.8c15.9-11.6,21.4-33.4,11.4-50.7l-28.8-50
	c-2.7-4.6-8.3-6.5-13.3-4.4l-38,15.7l-38-15.7c-4.9-2.1-10.6-0.2-13.3,4.4l-28.8,50c-10,17.5-4.4,39.1,11.4,50.7l-12.7,33.8l-7.3-3
	c-6.8-2.9-14.5,0.5-17.3,7.1c-0.6,1.4,0,2.9,1.4,3.5l53.8,22.4c1.4,0.6,2.9,0,3.5-1.4c2.9-6.8-0.5-14.6-7.1-17.3l-7.3-3l13-34.5
	c1.4,0.2,2.9,0.5,4.3,0.5c17.2,0,33-11,37.6-28.3l6.7-25.1l6.7,25.1c4.6,17.3,20.5,28.3,37.6,28.3c1.4,0,2.9-0.3,4.3-0.5l13,34.5
	l-7.3,3c-6.8,2.9-10,10.6-7.1,17.3c0.6,1.4,2.1,2.1,3.5,1.4l53.8-22.4C566.4,215.3,567,213.8,566.6,212.4L566.6,212.4z M445.9,122.2
	l-37.2-15.4l12.1-21.1l31.5,13L445.9,122.2z M475.1,122.2l-6.4-23.5l31.5-13l12.1,21.1L475.1,122.2z"/>
</svg>
