<?xml version="1.0" encoding="utf-8"?>
<!-- Generator: Adobe Illustrator 22.1.0, SVG Export Plug-In . SVG Version: 6.00 Build 0)  -->
<svg version="1.1" id="Ebene_1" xmlns="http://www.w3.org/2000/svg" xmlns:xlink="http://www.w3.org/1999/xlink" x="0px" y="0px"
	 viewBox="0 0 614 307" style="enable-background:new 0 0 614 307;" xml:space="preserve">
<rect fill="#ffffff" y="0" width="307" height="307"/>
<path fill="#000001" d="M307,307H0V0h307V307z M97,230.6h76.4c15,0,26.4-3,35.1-9.1c10.3-7.3,16.6-19.1,16.6-34.7
	c0-16.5-9.1-29.8-24.9-34.9v-0.6c12.1-5.3,18-14,18-27.8c0-12-5.1-21.9-13.8-28.6c-7.7-5.9-18.2-9.3-32.4-9.3H97V230.6z
	 M164.9,141.8h-26.4v-23.5h26.2c8.1,0,13.8,4.5,13.8,12c0,7.7-5.5,11.6-13.6,11.6V141.8z M168.7,197.2h-30.2V169h30
	c8.7,0,15.6,4.7,15.6,14C184.1,191.7,177.8,197.2,168.7,197.2L168.7,197.2z"/>
<rect fill="#000000" x="307" y="0" width="307" height="307"/>
<path fill="#000001" d="M562.6,85.5L465.2,48c-3-1.1-6.3-1.1-9.3,0l-97.4,37.4c-2.6,1-4.4,3.5-4.4,6.2V107c0,3.7,3,6.6,6.6,6.6h199.4
	c3.7,0,6.6-3,6.6-6.6V91.7C567,88.8,565.2,86.3,562.6,85.5z M380.8,126.9v66.4h-6.7c-3.7,0-6.6,3-6.6,6.6v19.9h186.3v-19.9
	c0-3.7-3-6.6-6.6-6.6h-6.6v-66.4h-26.6v66.4H474v-66.4h-26.6v66.4h-39.9v-66.4H380.8z M560.4,233.3H360.8c-3.7,0-6.6,3-6.6,6.6v13.3
	c0,3.7,3,6.6,6.6,6.6h199.4c3.7,0,6.6-3,6.6-6.6V240C567,236.3,564,233.3,560.4,233.3z"/>
</svg>
