<?xml version="1.0" encoding="utf-8"?>
<!-- Generator: Adobe Illustrator 22.1.0, SVG Export Plug-In . SVG Version: 6.00 Build 0)  -->
<svg version="1.1" xmlns="http://www.w3.org/2000/svg" xmlns:xlink="http://www.w3.org/1999/xlink" x="0px" y="0px"
	 viewBox="0 0 307 307" style="enable-background:new 0 0 307 307;" xml:space="preserve">

	<rect fill="#000000" width="307" height="307"/>
	<g fill="#000001">
		<path class="st4" d="M148.3,153.5c-2.1-6.6-2-19.5-0.9-19.5C151,134.1,150.6,149.4,148.3,153.5z M147.7,173.1
			c-3.2,8.3-7.2,18-11.8,26c7.6-2.9,16.2-7.1,26.1-9.1C156.6,186.1,151.6,180.4,147.7,173.1L147.7,173.1z M108.5,225
			c0,0.4,5.5-2.2,14.5-16.7C120.3,210.9,111,218.4,108.5,225z M175.7,113.6h56.4v136.3c0,5.5-4.5,9.9-9.9,9.9H82.8
			c-5.5,0-9.9-4.5-9.9-9.9V57.1c0-5.5,4.5-9.9,9.9-9.9h83.1v56.4C165.8,109.1,170.3,113.6,175.7,113.6z M172.4,185
			c-8.3-5.1-13.8-12.1-17.8-22.4c1.9-7.7,4.8-19.4,2.6-26.6c-2-12.2-17.7-11.1-19.9-2.9c-2.1,7.6-0.1,18.3,3.4,32
			c-4.8,11.4-11.9,26.9-16.9,35.7c0,0,0,0-0.1,0c-11.2,5.7-30.6,18.5-22.6,28.2c2.4,2.9,6.6,4.1,9,4.1c7.5,0,14.8-7.5,25.4-25.6
			c10.7-3.5,22.5-8,32.8-9.6c9,4.8,19.5,8.1,26.6,8.1c12.1,0,12.9-13.3,8.2-18C197.3,182.3,180.5,184,172.4,185z M229.3,90.8
			l-40.7-40.7c-1.9-1.9-4.4-2.9-7.1-2.9H179v53.1h53.1v-2.5C232.2,95.2,231.2,92.7,229.3,90.8z M198.5,196.8c1.7-1.1-1-5-17.8-3.7
			C196.1,199.6,198.5,196.8,198.5,196.8z"/>
	</g>
</svg>
