<?xml version="1.0" encoding="UTF-8" standalone="no"?>
<!-- Generator: Adobe Illustrator 22.1.0, SVG Export Plug-In . SVG Version: 6.00 Build 0)  -->

<svg version="1.1" xmlns="http://www.w3.org/2000/svg" xmlns:xlink="http://www.w3.org/1999/xlink" x="0px" y="0px" viewBox="0 0 307 307" style="enable-background:new 0 0 307 307;" xml:space="preserve">

	<rect fill="#000000" width="307" height="307" />
	<g fill="#000001" transform="translate(0.16599782,1.1487167)">
		<path d="M 247.70846,60.366195 206.36588,50.8256 c -4.49203,-1.033564 -9.10332,1.311832 -10.93193,5.525594 l -19.08119,44.522776 c -1.6696,3.89574 -0.55654,8.46728 2.74292,11.13069 l 24.09,19.71724 c -14.31089,30.49015 -39.3152,55.85223 -70.44139,70.44139 l -19.71723,-24.09 c -2.70317,-3.29946 -7.23495,-4.41253 -11.1307,-2.74292 l -44.522773,19.08118 c -4.253516,1.86837 -6.598912,6.47966 -5.565347,10.9717 l 9.540594,41.34257 c 0.993813,4.29327 4.810051,7.39396 9.302081,7.39396 101.806095,0 184.451505,-82.4864 184.451505,-184.451505 0,-4.452277 -3.06094,-8.308268 -7.39396,-9.30208 z" />
	</g>
</svg>
