<?xml version="1.0" encoding="utf-8"?>
<svg version="1.1" xmlns="http://www.w3.org/2000/svg" xmlns:xlink="http://www.w3.org/1999/xlink" x="0px" y="0px"
	 viewBox="0 0 127.4 127.5" style="enable-background:new 0 0 127.4 127.5;" xml:space="preserve">

<path fill="#A8A8A8" d="M86.5,54.9c0.7,1.7,1.1,3.5,1.4,5.2l17.3-4.8c-0.8-1.5-1.4-3.4-1.4-5.2L86.5,54.9z"/>
<path fill="#A8A8A8" d="M42.7,96.1c1.8,0.6,3.5,1.5,4.9,2.8l6.7-12.1c-1.8-0.7-3.4-1.7-4.9-2.8L42.7,96.1z"/>
<path fill="#A8A8A8" d="M48.8,44.8l-12-11.9c-1.1,1.5-2.4,2.8-3.9,3.9l11.8,11.8C46,47.1,47.3,45.9,48.8,44.8z"/>
<path fill="#FF5C5C" d="M47.6,98.7c-1.4-1.1-3.1-2.1-4.9-2.8c-1.7-0.6-3.4-0.8-5.1-0.8c-8.7,0-15.8,7-15.8,15.8c0,8.7,7,15.8,15.8,15.8
	c8.7,0,15.8-7,15.8-15.8C53.3,106.1,51.1,101.6,47.6,98.7z"/>
<path fill="#FFBD4A" d="M115.4,38.5c-6.3,0-11.5,5.1-11.5,11.5c0,0.1,0,0.1,0,0.3c0,2,0.6,3.8,1.4,5.2c2,3.6,5.6,5.9,10,5.9
	c6.3,0,11.5-5.1,11.5-11.5S121.7,38.5,115.4,38.5z"/>
<path fill="#99E265" d="M20.7,0.6c-11.1,0-20.1,9-20.1,20.1s9,20.1,20.1,20.1c4.6,0,8.9-1.5,12.2-4.2c1.5-1.1,2.8-2.5,3.9-3.9
	c2.5-3.4,4.1-7.5,4.1-12.1C40.8,9.6,31.8,0.6,20.7,0.6z"/>
<path fill="#2EB2FF" d="M88.1,60.1c-0.3-1.8-0.8-3.6-1.4-5.2c-3.8-9-12.5-15.4-22.9-15.4c-5.6,0-10.8,2-14.9,5.1
	c-1.4,1.1-2.8,2.4-3.9,3.9c-3.5,4.3-5.5,9.7-5.5,15.5c0,8.2,4.1,15.4,10.3,20c1.5,1.1,3.2,2.1,4.9,2.8c2.9,1.3,6.1,2,9.4,2
	c13.6,0,24.6-11,24.6-24.6C88.4,62.8,88.2,61.4,88.1,60.1z"/>
</svg>
