<?xml version="1.0" encoding="utf-8"?>
<svg version="1.1" xmlns="http://www.w3.org/2000/svg" xmlns:xlink="http://www.w3.org/1999/xlink" x="0px" y="0px"
	 viewBox="0 0 307 307" style="enable-background:new 0 0 307 307;" xml:space="preserve">

	<rect fill="#000000" width="307" height="307"/>
	<g fill="#000001">
		<path d="M252.4,90.8c0-1.9-1.1-3.6-2.9-4.3c-18.5-7.1-33.6-21-42.2-38.9c-0.8-1.5-2.4-2.5-4.2-2.5h-99c-1.8,0-3.4,0.9-4.2,2.5
			c-8.6,17.9-23.7,31.8-42.2,38.9c-1.8,0.7-3,2.4-2.9,4.3v24c0.1,30.5,8.9,60.3,25.4,86C97.7,228,122,250.2,150.8,265l0.6,0.3
			c1.4,0.7,3,0.7,4.3,0l0.6-0.3c28.8-14.8,53.2-37,70.7-64.2c16.5-25.6,25.3-55.5,25.4-86L252.4,90.8z M209.1,146.7
			c-11,15.7-22,31.4-33,47.1c-5,7.1-10,14.3-15,21.4c-1.7,2.5-4.3,3.7-7,4.6c-0.5,0-1.1,0-1.6,0c-3.6-0.1-6.1-2-8.4-4.5
			c-12.1-12.6-24.1-25.4-36.2-38c-4.8-5-9.8-9.7-14.2-15c-1.3-1.6-2.4-3.1-2.7-5.1c0-1.4,0-2.9,0-4.3c1.7-4.1,4.8-6.9,8.2-9.6
			c2.6-2.1,4.9-4.8,7.3-7.2c4.7-4.7,10.1-5.1,14.9-0.1c5.6,5.8,11.4,11.4,16.7,17.4c3,3.3,6.2,6.4,9.3,9.7c1.8,1.8,2.8,1.7,4.3-0.4
			c7.7-10.5,15.1-21.3,22.5-32.1c10.2-14.8,20.6-29.4,31-44c1.4-1.9,3.5-3.1,6-3.3c0.5,0,1.1,0.2,1.3-0.5c0.2,0,0.4,0,0.5,0
			c4,0,6.7,2.5,9.7,4.6c3.4,2.4,6.8,4.7,10.1,7.1c2.2,1.6,3.9,3.4,4.5,6.1c0,1.8,0,3.6,0,5.4C227.8,119.6,218.5,133.2,209.1,146.7z"
			/>
	</g>
</svg>
